<?xml version="1.0"?>
<svg xmlns="http://www.w3.org/2000/svg" xmlns:xlink="http://www.w3.org/1999/xlink" version="1.1" id="Capa_1" x="0px" y="0px" viewBox="0 0 512.002 512.002" style="enable-background:new 0 0 512.002 512.002;" xml:space="preserve" width="512px" height="512px" class=""><g><g>
	<g>
		<path d="M109.399,101.665c-2.93,7.969-3.14,15.419-3.984,23.767c-0.523,5.17-0.705,9.428-2.89,14.257    c-1.568,3.468-3.797,6.581-5.356,10.058c-2.946,6.572-5.239,14.425-5.811,21.624c-0.656,8.249,1.172,17.883,3.077,25.911    c0.373,1.573,2.926,1.259,2.846-0.385c-0.413-8.46-1.79-17.654-0.699-26.068c1.075-8.284,3.81-16.647,7.725-23.984    c3.043-5.702,5.106-11.346,4.81-17.882c-0.413-9.106-0.301-17.925,2.641-26.648C112.265,100.811,109.936,100.205,109.399,101.665z    " data-original="#000000" class="active-path" data-old_color="#000000" fill="#944A8E"/>
	</g>
</g><g>
	<g>
		<path d="M165.526,18.812c-3.903-2.922-10.071-6.953-15.094-6.976c-5.586-0.025-9.404,3.294-12.208,7.906    c-0.169,0.283,0.115,0.67,0.437,0.569c1.718-0.542,2.759-1.828,4.221-2.785c-1.035,2.595-1.125,6.12-0.815,7.918    c0.828,4.805,4.908,8.727,9.959,7.819c0.821-0.147,0.854-1.574,0-1.692c-5.356-0.74-8.038-4.871-8.006-9.347    c0.521,2.015,1.776,3.761,3.834,4.7c3.058,1.396,6.869,1.541,9.939,0.106c0.877-0.41,1.731-1.014,2.454-1.739    c-0.086,0.142-0.171,0.282-0.263,0.427c-1.068,1.7-2.021,3.291-3.693,4.474c-0.869,0.615-0.133,1.874,0.832,1.423    c3.255-1.52,7.075-6.062,5.968-9.837c0.353,0.09,0.714,0.166,1.093,0.217C166.15,22.261,167.165,20.039,165.526,18.812z     M156.892,23.71c-1.749,0.987-4.078,1.16-6.021,0.805c-2.5-0.458-4.043-1.783-4.17-4.473c-0.051-1.077,0.09-2.255,0.703-3.171    c0.107-0.16,0.601-0.659,1.177-1.143c1.71-0.05,3.44,0.32,5.146,1.143c0.188,0.091,0.361,0.196,0.544,0.292    c-0.495,0.419-0.869,1.089-1.043,1.596c-0.469,1.364,0.319,2.893,1.8,3.092c1.542,0.208,2.709-0.904,3.228-2.288    c0.405,0.253,0.812,0.503,1.226,0.737C158.813,21.619,158.378,22.871,156.892,23.71z" data-original="#000000" class="active-path" data-old_color="#000000" fill="#944A8E"/>
	</g>
</g><g>
	<g>
		<path d="M144.228,32.908c-3.111-2.03-5.286-4.605-5.702-8.432c-0.047-0.432-0.71-0.453-0.691,0    c0.084,2.058,0.457,4.133,1.368,5.997c0.936,1.914,2.376,2.888,4.274,3.721C144.339,34.573,145.048,33.444,144.228,32.908z" data-original="#000000" class="active-path" data-old_color="#000000" fill="#944A8E"/>
	</g>
</g><g>
	<g>
		<path d="M207.011,21.787c-0.129-0.377-0.318-0.672-0.555-0.919c0.036-0.05,0.058-0.11,0.065-0.172    c0.038-0.358,0.055-0.715-0.31-1.137c-0.306-0.354-0.682-0.638-1.114-0.818c-1.214-0.505-2.758,0.336-3.112,1.593    c-0.307,1.091,0.267,2.069,1.202,2.615c0.246,0.143,0.515,0.247,0.772,0.367c0.236,0.11,0.472,0.249,0.722,0.326    c0.027,0.011,0.055,0.022,0.083,0.034c0.104,0.014,0.179,0.024,0.249,0.034c0.017,0.008,0.033,0.017,0.052,0.023    C206.177,24.101,207.393,22.907,207.011,21.787z" data-original="#000000" class="active-path" data-old_color="#000000" fill="#944A8E"/>
	</g>
</g><g>
	<g>
		<path d="M172.443,17.946c-3.011,1.396-7.158,4.404-5.122,8.186c1.35,2.503,4.891,3.089,7.413,2.197    c0.532-0.188,1.045-0.7,0.901-1.245c-0.152-0.573-0.887-0.742-1.478-0.7c-1.485,0.105-2.636,0.207-3.413-1.297    c-1.253-2.43,0.799-3.666,2.572-4.567c1.972-1.002,3.221-1.084,5.313-1.509c1.951-0.396,3.87-1.068,5.843-1.357    c2.43-0.357,5.686-0.306,7.653,1.469c0.986,0.889,1.516,2.517,2.301,3.583c0.434,0.588,1.657,0.696,1.798-0.235    C198.023,10.592,177.716,15.5,172.443,17.946z" data-original="#000000" class="active-path" data-old_color="#000000" fill="#944A8E"/>
	</g>
</g><g>
	<g>
		<path d="M140.7,12.159c-1.101,0.792-2.31,1.298-3.34,2.211c-1.443,1.277-2.713,2.866-3.893,4.38    c-1.522,1.957-3.25,4.304-3.474,6.861c-0.055,0.64,0.867,0.818,1.165,0.315c1.293-2.188,2.389-4.491,3.887-6.566    c1.803-2.497,4.035-4.476,5.961-6.805C141.173,12.353,140.951,11.978,140.7,12.159z" data-original="#000000" class="active-path" data-old_color="#000000" fill="#944A8E"/>
	</g>
</g><g>
	<g>
		<path d="M131.652,16.434c-4.466,3.867-6.536,8.706-10.355,13.053c-4.284,4.876-8.15,8.706-11.018,14.634    c-0.45,0.929,0.747,1.58,1.354,0.791c3.986-5.177,8.706-9.801,12.624-14.986c3.145-4.161,4.48-8.792,8.353-12.533    C133.244,16.78,132.304,15.869,131.652,16.434z" data-original="#000000" class="active-path" data-old_color="#000000" fill="#944A8E"/>
	</g>
</g><g>
	<g>
		<path d="M127.293,32.872c-5.706,7.076-13.523,12.324-16.689,21.274c-0.286,0.809,0.986,1.34,1.385,0.583    c4.164-7.904,10.762-14.186,15.972-21.342C128.242,33,127.596,32.496,127.293,32.872z" data-original="#000000" class="active-path" data-old_color="#000000" fill="#944A8E"/>
	</g>
</g><g>
	<g>
		<path d="M109.065,217.485c-4.159-20.242-9.275-41.428-1.551-61.605c0.344-0.899-1.086-1.273-1.436-0.396    c-3.971,9.972-4.769,21.281-4.258,31.928c0.481,10.032,1.458,21.545,5.811,30.677    C108.033,218.932,109.235,218.311,109.065,217.485z" data-original="#000000" class="active-path" data-old_color="#000000" fill="#944A8E"/>
	</g>
</g><g>
	<g>
		<path d="M122.8,224.531c-2.964-8.68-7.021-16.818-9.093-25.816c-2.471-10.728-2.76-21.808-1.026-32.661    c0.121-0.762-1.026-1.106-1.18-0.325c-4.122,20.906-0.62,40.907,8.918,59.806C121.078,226.841,123.279,225.933,122.8,224.531z" data-original="#000000" class="active-path" data-old_color="#000000" fill="#944A8E"/>
	</g>
</g><g>
	<g>
		<path d="M189.527,240.529c-1.988,4.852-4.019,9.651-6.719,14.162c-0.515,0.861,0.647,1.704,1.358,1.047    c4.137-3.819,5.262-9.619,7.028-14.75C191.563,239.916,189.938,239.527,189.527,240.529z" data-original="#000000" class="active-path" data-old_color="#000000" fill="#944A8E"/>
	</g>
</g><g>
	<g>
		<path d="M137.964,259.127c-3.706-6.288-3.275-14.141-1.982-21.061c0.293-1.567-2.09-2.249-2.41-0.665    c-1.341,6.637-3.346,18.384,2.937,23.181C137.391,261.255,138.466,259.979,137.964,259.127z" data-original="#000000" class="active-path" data-old_color="#000000" fill="#944A8E"/>
	</g>
</g><g>
	<g>
		<path d="M490.076,294.455c-0.226-4.266-0.847-8.866-2.166-12.933c-1.365-4.213-3.903-7.91-5.505-12.025    c-1.485-3.814-1.65-8.041-3.376-11.749c-1.663-3.571-4.603-6.61-7.229-9.492c-5.668-6.221-12.593-11.245-19.375-16.181    c-15.605-11.359-35.099-10.85-52.547-17.309c-4.428-1.639-8.753-3.174-13.515-3.396c-5.634-0.263-11.429,0.316-17.088,0.341    c-8.801,0.039-17.041-3.164-25.704-4.146c-7.703-1.929-15.564-3.422-23.209-5.531c-3.844-1.06-7.336-2.736-11.297-3.478    c-3.98-0.746-8.074-1.222-12.104-1.589c-8.977-0.818-18.179-3.042-25.644-8.365c-12.703-9.057-30.832-10.567-45.973-8.805    c-7.614,0.886-13.983,2.651-21.077,5.621c-7.009,2.935-13.348,7.015-20.62,9.434c-4.338,1.443-9.281,2.312-13.793,3.146    c-4.408,0.814-8.801,1.492-13.144,0.036c-3.272-1.097-6.26-3.011-9.188-4.808c-5.394-5.585-11.285-11.074-13.734-18.338    c-1.612-4.781-3.836-10.104-4.736-15.057c-0.958-5.279-0.633-10.739-1.784-16.021c-1.15-5.273-3.14-10.464-4.569-15.68    c-1.677-6.12-2.36-11.967-2.632-18.292c-0.18-4.186-0.284-8.079,0.322-12.06c3.041-8.304,7.24-16.713,12.821-23.518    c3.477-4.239,7.196-8.469,12.847-9.676c4.814-1.029,7.754,1.417,12.147,2.576c4.134,1.091,7.624-0.162,11.608-1.227    c5.226-1.397,11.172-2.033,16.487-0.648c7.483,1.951,13.13,3.803,19.825,2.053c5.66-0.337,12.941-2.221,14.909-7.607    c1.261-3.452-0.298-5.33-2.861-6.424c0.368-3.259,0.556-8.486-2.275-9.516c-2.982-1.085-6.191,3.358-8.471,5.977    c-0.404-1.28-0.701-3.207-0.948-3.829c-0.454-1.14-0.646-1.834-1.468-2.741c-0.394-0.435-1.265-0.589-1.761-0.227    c-1.765,1.289-3.121,2.946-4.55,4.56c-1.193-2.195-2.981-4.159-4.825-5.729c-2.23-1.898-2.874,2.018-3.715,3.223    c-1.564,2.242-3.738-1.618-2.902-2.801c0.327-0.463,2.1-0.22,2.826-0.791c1.153-0.907,1.852-2.627,2.675-3.814    c0.179-0.258,0.366-0.524,0.553-0.793c0.403,0.931,0.944,1.82,1.487,2.846c0.698,1.319,1.271,3.127,3.148,2.778    c1.512-0.28,2.316-1.943,2.925-3.182c0.415-0.843,0.794-1.699,1.257-2.518c0.395-0.697,0.936-1.31,1.343-1.983    c0.143,0.473,0.238,0.969,0.383,1.381c0.352,0.996,0.97,1.958,1.059,3.027c0.072,0.862,0.852,1.672,1.789,1.362    c1.904-0.629,2.503-2.531,3.173-4.239c0.228-0.582,0.438-1.109,0.681-1.619c0.053,0.225,0.095,0.45,0.11,0.678    c0.075,1.118-0.387,2.273-0.266,3.382c0.188,1.725,1.847,2.385,3.368,1.703c1.792-0.804,3.152-2.904,4.139-4.512    c1.469-2.395,3.805-4.586,4.213-7.493c0.366-2.609-0.685-5.156-2.089-7.299c-2.917-4.45-7.658-8.072-12.333-10.412    c-9.881-4.946-19.669-4.056-30.308-3.975c-10.378,0.079-19.418-3.278-29.243-5.989c-8.105-2.237-14.338,0.709-20.066,5.486    c-2.789,1.388-5.521,2.799-7.998,4.753c-6.37,5.023-10.907,13.06-15.463,19.63c-4.3,6.201-6.269,14.54-8.079,21.777    c-2.104,8.417-8.515,14.914-10.346,23.393c-1.894,8.768-1.029,17.979-3.022,26.767c-0.872,3.844-1.964,7.693-2.298,11.633    c-0.438,5.157-0.212,10.199-1.381,15.289c-1.067,4.643-3.141,8.89-3.101,13.739c0.037,4.53,1.378,8.842,1.141,13.421    c-0.473,9.111-1.617,17.83,0.788,26.605c0.49,4.399,1.293,8.678,2.299,12.593c1.655,6.439,4.055,12.319,6.101,18.598    c2.242,6.88,1.44,14.208,4.013,21.021c2.515,6.659,6.634,11.58,7.445,18.87c0.7,6.293,1.469,11.472,5.304,16.765    c0.036,0.05,0.077,0.094,0.114,0.144c-0.681,0.847-1.247,1.894-1.962,2.792c-2.068,2.594-3.766,5.338-5.515,8.153    c-1.724,2.772-3.612,6.338-7.258,6.896c-1.666,0.254-4.109-0.467-5.784-0.61c-4.543-0.389-9.077-0.07-13.625,0    c-4.378,0.067-9.14,0.427-13.479-0.378c-2.622-0.486-5.221-1.845-7.937-1.21c-2.035,0.476-3.323,1.769-4.192,3.625    c-0.948,2.026-1.668,4.02-2.564,5.985c-1.375,1.667-2.357,3.803-3.861,5.308c-2.841,2.844-6.234,4.348-9.365,6.712    c-5.698,4.305-9.265,16.993-2.838,22.185c0.843,0.681,1.667,1.125,2.518,1.418c0.383,2.484,1.709,4.762,3.659,6.438    c1.393,1.197,3.018,2.14,4.508,3.209c1.332,0.955,2.49,1.349,4.115,1.109c0.778-0.115,1.583-1.155,1.483-1.948    c-0.184-1.456-0.997-2.659-1.159-4.121c-0.132-1.19,0.048-2.355,0.102-3.526c0.431,0.003,0.858-0.015,1.279-0.073    c1.514,1.676,5.158,1.876,6.978,1.492c2.568-0.543,7.519-2.789,8.185-5.736c0.18-0.794-0.237-1.801-1.119-1.972    c-1.133-0.219-2.219-0.364-3.246-0.846c-0.834-0.391-1.467-0.862-2.387-1.096c-0.667-0.17-1.313-0.244-1.928-0.195    c-0.285-1.173-0.892-2.294-1.043-3.471c-0.677-5.283,2.428-5.985,4.973-8.981c2.173-2.558,2.689-6.935,5.449-8.899    c6.767-4.817,16.242-0.221,23.023,2.042c6.588,2.199,12.404,2.322,19.262,1.868c6.535-0.433,11.067-3.878,14.926-9.143    c1.57-2.141,4.422-6.326,5.387-9.95c1.971,2.569,3.809,5.156,6.142,7.415c0.572,1.092,1.205,2.171,1.919,3.256    c1.168,1.775,2.456,2.604,4.165,3.785c0.661,0.457,1.169,1.021,1.897,1.415c0.047,0.026,0.163,0.081,0.312,0.148    c-2.833,1.954-6.235,2.896-9.185,5.115c-3.183,2.394-5.033,5.392-7.001,8.783c-1.187,2.045-2.513,3.763-3.963,5.362    c-0.3,0.304-0.588,0.649-0.958,1.012c-2.365,2.313-4.953,3.548-7.999,4.833c-5.831,2.459-10.045,5.591-14.381,10.061    c-3.462,3.568-7.188,4.416-9.1,9.44c-1.03,2.708-0.726,5.389,0.553,7.728c0.313,1.146,0.832,2.208,1.425,2.95    c0.405,0.505,0.875,0.941,1.37,1.344c0.058,2.606,0.365,5.708,1.423,7.922c1.073,2.249,3.331,5.254,5.892,5.832    c1.182,0.266,2.023-0.522,2.16-1.645c0.237-1.95,0.284-3.439,0.989-5.332c0.118-0.317,0.224-0.601,0.311-0.869    c0.673,0.513,1.43,0.938,2.249,1.264c-0.325,2.747,1.89,6.923,3.723,8.283c3.648,2.708,8.233,0.844,12.171-0.009    c1.071-0.231,1.576-1.857,0.682-2.584c-2.063-1.677-4.426-4.314-4.789-7.159c-0.021-0.168-0.078-0.332-0.156-0.486    c0.568-0.796,0.852-1.742,1.038-2.897c0.256-1.594-0.415-3.188-0.239-4.699c0.183-1.573,0.728-2.674,1.418-3.682    c0.844,3.969,3.341,7.964,7.119,8.827c0.583,0.133,1.145,0.196,1.69,0.22c0.624,2.731,4.346,3.856,7.201,3.508    c4.811-0.586,9.907-3.08,10.644-8.394c0.112-0.811-0.185-1.68-1.081-1.902c-1.672-0.416-3.149,0.428-4.862,0.244    c-1.244-0.133-2.652-0.298-3.931-0.607c0.068-0.501,0.112-1.012,0.109-1.542c-0.024-3.977-2.808-7.298-2.947-11.276    c-0.098-2.794,0.66-5.807,1.596-8.634c2.9-4.655,6.792-8.727,11.308-11.875c4.875-3.399,10.26-7.371,15.745-9.613    c0.945-0.386,1.957-0.797,3.004-1.234c2.189,3.719,8.611,5.165,12.26,5.971c1.395,0.309,2.801,0.539,4.212,0.74    c-1.215,3.041-2.533,5.854-2.104,9.594c0.56,4.894,3.448,10.548,6.371,14.444c3.528,4.702,8.021,9.195,12.339,13.187    c5.465,5.053,11.77,9.501,16.999,14.722c1.886,1.883,4.716,5.661,4.19,8.404c-0.572,2.979-5.714,6.619-7.89,8.211    c-5.364,3.925-11.227,7.57-15.529,12.71c-2.134,2.55-3.912,5.898-6.539,7.955c-2.504,1.962-5.876,1.48-8.61,2.864    c-2.228,1.128-3.946,2.85-5.323,4.841c-1.327,0.995-2.446,2.239-3.466,3.564c-3.314,4.309-5.281,9.19-5.904,14.63    c-0.396,3.458-0.44,7.123-0.603,10.592c-0.107,2.281,0.2,4.025,1.521,5.943c0.462,0.67,0.923,1.213,1.386,1.651    c-0.146,3.258,2.092,7.237,3.944,9.214c2.268,2.42,9.716,6.604,11.94,2.078c0.107-0.217,0.172-0.465,0.199-0.72    c2.566,2.437,6.179,3.292,9.658,2.908c2.993-0.33,6.593-1.639,4.654-5.31c-0.96-1.817-2.573-3.292-3.656-5.061    c-0.711-1.162-1.282-2.311-2.266-3.145c0.31-0.627,0.566-1.293,0.764-2.003c1.06-3.814-0.875-7.342,2.892-10.048    c2.66-1.911,6.1-2.311,8.37-4.833c1.782-1.98,2.495-4.627,2.84-7.196c0.604-4.502,0.391-7.786,3.873-11.287    c3.331-3.348,8.184-5.552,12.425-7.496c7.01-3.212,13.505-6.624,18.659-12.529c4.92-5.637,4.339-11.399,1.979-18.103    c-3.127-8.883-9.734-15.826-11.208-25.307c-0.808-5.196,0.198-12-1.433-17.448c3.351,0.558,6.722,0.753,10.104,0.393    c2.186-0.09,4.345-0.345,6.222-0.47c4.177-0.277,8.487-1.258,12.572-2.252c0.037,0.481,0.077,0.96,0.123,1.437    c1.001,10.437,2.438,21.915,10.167,29.187c0.728,0.967,1.48,1.87,2.232,2.686c5.099,5.533,11.205,7.188,18.246,8.912    c8.006,1.96,17.14,3.089,24.491,6.705c3.857,1.897,7.564,3.928,11.088,6.411c3.142,2.213,5.526,4.649,9.108,6.218    c7.531,3.298,14.963,8.021,19.22,15.277c4.069,6.937,4.003,16.773,5.792,24.499c1.814,7.836,3.287,16.93,2.363,25.008    c-0.385,3.363-2.236,6.469-2.763,9.899c-0.351,2.283-0.416,4.879-1.682,6.912c-0.419,0.673-0.97,1.306-1.574,1.913    c-0.586,0.529-1.191,1.032-1.889,1.424c-1.81,1.016-3.672,1.096-5.687,1.202c-2.703,0.141-5.968,0.75-7.952,2.755    c-1.954,1.977-2.279,4.054-1.696,5.994c-2.509,0.695-4.927,2.327-6.836,3.762c-2.774,2.086-5.167,4.583-6.332,7.913    c-0.858,2.455-1.492,5.629,1.863,6.278c1.872,0.362,3.868-0.316,5.741-0.347c1.358-0.022,2.667,0.155,3.983,0.239    c0.012,0.549,0.126,1.073,0.359,1.557c1.684,3.502,7.44,1.67,10.288,1.432c5.203-0.434,11.163,0.426,16.105-1.498    c0.586-0.229,1-0.689,1.244-1.225c1.042-0.207,2.142-0.569,3.315-1.093c0.145-0.064,0.269-0.139,0.379-0.22    c0.561-0.222,1.112-0.512,1.615-0.821c3.357-2.065,3.173-4.84,5.005-7.987c2.692-4.626,9.875-8.306,10.439-14.056    c1.444-2.5,1.79-5.006,1.284-8.373c-0.83-5.528-0.658-11.151-1.813-16.613c-1.344-6.353-2.448-12.584-2.077-19.115    c0.362-6.368,1.423-12.825,2.085-19.175c0.495-4.745,2.931-10.462,1.159-15.171c-1.431-3.804-5.189-6.344-8.004-9.075    c-3.598-3.488-6.813-7.331-10.296-10.935c-1.204-1.247-2.686-3.022-4.356-4.257c-3.022-2.803-6.332-5.356-8.986-7.723    c-3.95-3.522-6.324-6.669-8.022-11.81c-1.376-4.163-2.439-8.083-3.452-12.348c-1.496-6.3-5.88-11.42-12.234-13.193    c-3.348-0.934-7.204-1.051-10.623-0.559c-0.291,0.042-0.557,0.099-0.826,0.154c0.691-0.711,1.369-1.453,2.019-2.271    c3.483-4.39,1.896-7.439,2.051-12.708c0.013-0.435,0.041-0.865,0.077-1.292c4.915,1.495,11.437,0.104,15.699-1.342    c8.136-2.761,13.386-8.011,20.076-13.04c3.641-2.737,7.665-5.844,12.03-7.267c4.446-1.449,9.203-1.471,13.813-1.922    c7.938-0.776,13.86-4.245,20.937-7.567c4.38-2.057,9.302-3.755,14.196-3.684c5.454,0.08,10.109,2.692,15.183,4.274    c4.159,1.297,8.467,2.01,12.643,3.231c6.013,1.758,10.215,5.061,13.746,10.216c5.35,7.811,6.088,17.037,6.712,26.291    c0.614,9.118-3.908,19.722-8.958,27.199c-2.208,3.269-10.198,11.066-5.146,14.938c4.346,3.331,9.773-2.991,12.285-5.984    c2.457-2.93,4.465-6.19,6.55-9.384c2.727-4.177,6.062-7.965,8.64-12.228c2.165-3.58,3.476-6.963,4.543-10.962    c1.292-4.845,3.648-9.291,5.58-13.898C490.08,311.371,490.498,302.439,490.076,294.455z M213.647,47.916    c0.357-1.062,0.81-1.179,1.359-0.354c-0.08,1.017-0.126,2.036-0.139,3.055c0.018,0.627,0.074,1.198,0.156,1.759    c-1.663-0.338-3.427-0.532-5.003-0.703C211.194,50.217,212.308,48.594,213.647,47.916z M202.885,47.18    c1.319-0.79,0.427-0.997,1.162,0.946c0.337,0.893,0.464,1.748,0.63,2.55c-1.315-0.43-2.563-0.959-3.811-1.474    C201.505,48.401,202.162,47.613,202.885,47.18z M192.724,45.241c0.905-0.161,1.964,1.034,2.798,2.344    c-0.067-0.009-0.13-0.027-0.198-0.036c-1.37-0.171-2.796-0.23-4.242-0.264C191.488,46.857,192.23,45.329,192.724,45.241z     M187.295,47.199c-2.098-0.076-4.166-0.262-6.098-0.798c0.992-0.921,2.06-1.785,2.821-2.855c0.493-0.694,0.378-0.74,0.819-0.055    c0.381,0.592,0.604,1.272,0.943,1.885C186.179,46.094,186.72,46.635,187.295,47.199z M180.964,38.557    c-0.459-0.924-0.869-1.867-1.361-2.771c1.095-0.277,2.203-0.507,3.321-0.68c-0.267,0.532-0.532,1.064-0.821,1.581    C181.753,37.31,181.413,37.987,180.964,38.557z M190.658,35.187c-0.661,1.002-1.281,2.066-1.972,3.067    c-0.309-0.536-0.74-1.011-1.019-1.566c-0.313-0.625-0.488-1.323-0.806-1.948c0.852-0.027,1.706-0.03,2.56,0.017    c0.499,0.028,0.97,0.065,1.432,0.103C190.791,34.969,190.728,35.08,190.658,35.187z M197.787,38.836    c-0.08,0.144-0.171,0.348-0.28,0.517c-0.023-0.053-0.048-0.119-0.078-0.219c-0.182-0.606-0.803-1.222-1.176-1.712    c-0.544-0.716-1.025-1.588-1.557-2.398c0.944-0.045,1.91-0.182,2.972-0.51c0.875-0.27,1.744-0.54,2.61-0.805    C199.19,35.222,198.605,37.358,197.787,38.836z M207.585,33.268c-0.262,0.702-0.529,2.137-0.977,3.258    c-0.422-0.667-0.894-1.306-1.335-1.915c-0.361-0.499-0.773-1-1.276-1.337c0.004-0.212-0.026-0.418-0.11-0.602    c1.461-0.377,2.931-0.685,4.424-0.887C207.994,32.305,207.744,32.843,207.585,33.268z M213.521,36.555    c-0.031,0.036-0.104,0.099-0.193,0.177c-0.038-0.871-0.124-1.724-0.45-2.55c-0.228-0.575-0.509-1.336-0.877-2.041    c0.072-0.194,0.127-0.391,0.135-0.593c0.733,0.011,1.473,0.047,2.225,0.133c0.559,0.064,1.182,0.206,1.824,0.337    C215.106,33.789,214.223,35.756,213.521,36.555z M36.32,336.391c0.014,0.351,0.043,0.702,0.083,1.053    c-1.089-0.652-2.254-1.206-3.271-1.965c-1.003-0.75-1.833-1.743-2.481-2.848c0.474,0.026,0.96,0.04,1.478,0.041    c1.303,0.003,2.96-0.151,4.261-0.796c0.13,0.102,0.271,0.187,0.406,0.28C36.346,333.5,36.264,334.976,36.32,336.391z     M48.021,328.423c0.881,0.257,1.812,0.429,2.656,0.88c0.445,0.238,0.845,0.41,1.232,0.539c-0.989,0.547-2.062,1.072-2.331,1.206    c-1.144,0.571-3.162,1.24-4.944,1.21C46.203,331.4,47.436,330.058,48.021,328.423z M107.417,298.125    c-3.232,3.414-6.113,3.944-10.667,4.506c-3.695,0.456-7.394,0.99-11.112,0.315c-7.384-1.338-14.25-5.3-21.974-4.417    c-1.769,0.202-4.47,0.548-6.686,1.476c-2.946,0.079-4.837,2.126-6.057,4.816c-1.482,3.27-3.166,5.195-5.566,7.772    c-1.444,1.551-2.421,3.251-2.708,5.366c-0.271,1.998,0.428,3.491,0.816,5.375c0.321,1.558,1.229,4.532-0.915,5.058    c-2.137,0.524-5.265-1.921-5.888-3.87c-1.218-3.811,1.429-6.873,3.353-9.75c1.335-1.998,1.621-4.132,2.778-6.169    c0.176-0.309-0.247-0.657-0.501-0.387c-3.826,4.073-9.307,7.837-9.892,13.883c-0.173,1.786,0.206,3.892,1.042,5.795    c0.117,0.267-4.711,0.11-5.341-0.263c-1.267-0.75-1.395-1.612-1.439-3.1c-0.095-3.157,0.97-6.714,2.751-9.321    c2.083-3.047,5.559-4.639,7.987-7.413c1.864-2.129,4.011-4.618,5.323-7.376c1.368-1.202,2.562-2.572,3.365-4.255    c1.344-2.812,0.125-4.879,5.507-4.932c1.438-0.014,3.273,1.007,4.703,1.283c7.753,1.493,15.847,0.917,23.687,1.55    c6.403,0.518,12.195,2.178,16.645-3.578c2.141-2.77,3.302-6.092,4.857-9.191c1.284-2.559,2.78-5.022,4.233-7.499    c3.421,3.745,7.548,6.75,11.047,10.445C113.046,288.358,111.3,294.022,107.417,298.125z M91.694,370.388    c-1.305-1.149-2.428-2.967-2.815-4.165c-0.377-1.167-0.761-2.496-1.057-3.809c1.786,0.732,3.778,0.977,5.69,0.646    c0.117,0.398,0.268,0.793,0.458,1.186C92.421,365.994,91.94,368.167,91.694,370.388z M110.178,373.947    c-1.944,0.411-3.924,0.79-5.573,0.128c-2.041-0.818-2.986-3.205-3.945-5.302c2.129,0.383,4.391,0.228,6.308-0.478    c0.118,1.026,0.636,1.976,1.422,3.041C109.014,372.184,109.552,373.102,110.178,373.947z M128.014,360.031    c1.072,0.378,2.335,0.394,3.425,0.53c1.006,0.125,1.974,0.285,2.991,0.177c0.123-0.013,0.257-0.044,0.396-0.083    c-2.394,3.287-7.903,5.068-11.153,2.989C125.565,363.074,127.069,361.784,128.014,360.031z M173.242,461.466    c-1.546-0.047-3.379-1.111-4.647-1.938c-1.741-1.136-3.121-3.113-4.058-5.233c2.245,0.296,4.69-0.494,7.629-0.283    c0.579,0.907,1.27,1.665,2.041,2.252C174.148,458.337,176.511,461.555,173.242,461.466z M186.657,461.827    c-0.599,0.115-1.198,0.203-1.812,0.214c-1.523,0.028-3.181-0.279-4.527-1.031c-1.562-0.872-2.332-2.083-2.933-3.412    c1.603,0.208,3.336-0.199,5.052-1.347C183.293,458.198,185.263,460.137,186.657,461.827z M231.917,378.795    c1.722,4.171,3.744,8.914,1.128,13.155c-2.501,4.056-7.083,7.149-11.122,9.424c-6.311,3.554-13.44,5.711-19.231,10.177    c-4.809,3.709-7.125,8.127-7.532,14.099c-0.385,5.659-2.232,6.871-6.98,9.643c-2.109,1.231-4.341,2.94-5.359,5.243    c-1.195,2.703,0.282,5.72-0.584,8.26c-0.521,2.706-2.659,3.083-6.414,1.133c-0.62-1.202-0.836-2.471-0.65-3.808    c-0.057-2.549,0.677-4.81,1.561-7.188c1.071-2.879,2.948-5.283,4.083-8.078c1.159-2.855,0.508-7.434,2.19-9.928    c0.6-0.888-0.633-2.209-1.527-1.528c-1.287,0.981-1.791,2.301-2.425,3.784c-1.544,3.614-3.386,6.59-5.259,9.965    c-2.117,3.813-3.807,8.053-3.834,12.474c-0.01,1.456,0.573,3.404-1.17,4.063c-1.422,0.538-3.313-0.779-4.166-1.799    c-2.317-2.773-0.816-7.34-0.839-10.638c-0.032-4.645,0.522-9.621,3.184-13.504c2.464-3.594,6.18-7.012,10.495-8.12    c1.838-0.473,3.82-0.332,5.591-1.052c5.495-2.236,8.631-9.421,13.008-13.212c6.033-5.227,25.26-13.903,22.117-24.362    c-1.629-5.423-5.257-9.228-9.589-12.576c-5.765-4.456-11.727-9.346-16.926-14.478c-4.888-4.825-9.791-9.218-12.892-15.459    c-2.621-5.275-2.651-9.596-2.29-14.862c6.912,0.779,13.937,0.721,20.744,1.942c5,0.896,6.537,4.737,9.986,7.789    c2.463,2.18,5.104,3.591,8.212,4.622c0.75,0.249,1.503,0.485,2.256,0.711c2.8,3.7,2.2,9,2.265,13.313    c0.045,3.02,0.53,6.058,1.088,9.027C222.621,365.473,228.735,371.09,231.917,378.795z M333.312,503.916    c-1.663-0.282-3.377-0.434-5.039-0.401c-0.505,0.01-3.039,0.518-4.338,0.701c0.598-2.513,3.011-4.953,4.729-6.384    c2.034-1.693,4.306-2.772,6.504-4.068c1.041,1.21,4.044,2.346,4.375,4.011c0.271,1.362-1.185,1.466-2.259,2.209    C335.751,501.043,334.375,502.382,333.312,503.916z M339.587,507.133c-0.504,0.054-3.005,0.578-3.536,0.351    c0.4-0.039,1.414-1.909,1.449-1.958c1.372-1.883,3.132-3.151,4.946-4.402c0.348,0.288,0.729,0.541,1.137,0.751    c1.128,0.583,2.035,0.465,3.179,0.783c2.292,0.636,2.652,0.705,4.188,2.516c0.272,0.32,0.546,0.611,0.823,0.887    C347.712,506.391,343.654,506.7,339.587,507.133z M483.2,314.243c-1.288,4.397-3.639,8.658-5.335,12.92    c-1.494,3.753-2.114,7.581-4.026,11.18c-2.092,3.938-4.89,7.272-7.513,10.854c-0.936,1.277-1.816,2.593-2.689,3.913    c1.444-2.921,2.75-6.035,3.75-9.181c3.573-7.015,6.184-14.844,6.914-22.059c0.564-5.575,0.856-11.277-0.083-16.826    c-0.732-4.329-1.006-11.207-3.728-14.783c-0.613-0.805-1.968-0.093-1.401,0.818c1.415,2.274,1.186,5.363,1.51,7.903    c0.362,2.835,0.961,5.606,1.168,8.466c0.406,5.584-0.186,11.489-1.227,16.975c-0.334,1.762-0.778,3.488-1.294,5.189    c-0.309-5.611-1.55-11.445-2.848-16.55c-1.634-6.427-5.778-13.02-10.298-17.811c-5.292-5.61-12.263-7.276-19.398-9.46    c-7.809-2.389-15.001-7.208-23.429-6.992c-8.782,0.226-15.971,4.883-23.69,8.38c-8.03,3.638-16.763,2.371-24.989,5.17    c-1.257,0.428-2.473,0.956-3.659,1.55c-1.035,0.163-2.071,0.325-3.104,0.493c-7.443,1.206-14.983,3.238-22.551,1.969    c-0.474-0.08-0.646,0.544-0.198,0.718c6.441,2.495,12.207,2.204,18.796,1.338c-3.625,2.784-6.995,5.974-10.293,8.868    c-3.662,3.214-7.836,5.704-12.416,7.377c-2.941,1.075-8.284,2.417-12.185,1.818c1.271-5.522,4.232-10.438,6.889-15.583    c3.048-5.902,5.959-11.84,8.589-17.942c0.979-2.272,1.822-4.485,2.52-6.67c3.089,1.218,7.359,1.35,9.703,1.29    c7.236-0.186,14.711-2.331,21.384-4.97c7.311-2.892,14.271-5.292,22.068-6.552c8.626-1.394,17.345-1.51,25.981-2.672    c1.825-0.246,1.115-2.768-0.399-2.951c-13.029-1.576-28.897,0.12-41.305,4.52c-6.455,2.289-12.512,5.176-19.199,6.825    c-3.8,0.938-7.792,1.863-11.717,1.829c-1.04-0.009-3.6,0.077-5.696-0.146c1.89-7.314,1.901-14.429-0.989-22.407    c-3.942-10.881-10.073-20.397-18.206-28.505c-0.526-0.525-1.273,0.136-0.981,0.757c2.043,4.344,5.253,8.292,7.599,12.523    c2.911,5.25,5.364,10.708,7.041,16.479c3.647,12.552-0.564,22.689-5.943,34.041c-4.292,9.06-11.397,18.285-13.597,28.152    c-0.48,2.156-0.576,4.547-0.648,6.741c-0.074,2.246,0.841,5.02,0.528,7.162c-0.693,4.744-7.585,9.795-10.589,13.424    c-0.985,1.19,0.265,3.21,1.756,2.276c1.814-1.136,3.543-2.228,5.186-3.389c1.783,0.061,3.554-0.414,5.372-0.58    c3.659-0.334,8.024,0.058,11.366,1.723c4.863,2.422,6.142,6.483,6.959,11.408c0.608,3.666,1.738,6.998,2.813,10.542    c2.148,7.078,5.473,10.907,10.859,15.915c4.856,4.515,9.761,9.116,15.188,12.967c2.388,2.865,4.79,5.699,7.391,8.374    c1.351,1.39,2.785,2.697,4.134,4.084c2.597,2.669,2.58,4.252,2.014,7.985c-0.735,4.853-0.72,9.587-0.877,14.482    c-0.299,9.306-1.131,18.393,0.32,27.671c0.792,5.062,1.05,9.578,1.15,14.66c0.051,2.623,0.753,5.218,0.813,7.83    c0.081,3.522-1.563,7.101-3.375,10.038c-1.575,2.554-4.447,3.85-6.239,6.321c-1.507,2.078-1.68,3.855-2.385,6.212    c-0.478,1.598-1.474,2.597-2.509,3.578c-0.144-0.007-0.291-0.003-0.44,0.024c-2.025,0.375-3.975,1.189-5.909,0.149    c-1.947-1.046-1.153-1.104-2.339-2.766c-0.697-0.977-1.22-1.446-2.317-1.883c-1.57-0.626-4.343,0.471-4.815-1.839    c-1.023-5.01,9.543-3.689,11.85-4.101c9.548-1.704,12.554-14.881,11.578-22.854c-0.14-1.145-1.838-1.603-2.167-0.293    c-1.363,5.427-2.374,10.024-6.228,14.355c-2.802,3.149-6.194,2.564-9.954,3.56c-2.856,0.756-7.031,2.648-9.129,5.521    c-1.204-1.326-3.349-2.931-3.53-4.208c-0.416-2.94,5.413-2.576,7.061-2.908c1.055-0.213,2.049-0.544,2.96-0.979    c0.149-0.03,0.298-0.072,0.445-0.139c3.355-1.529,6.541-3.76,8.394-7.01c2.077-3.643,1.378-7.954,3.439-11.572    c3.463-6.08,2.396-14.147,1.497-21.082c-1.221-9.42-4.036-18.919-6.616-28.024c-1.852-6.534-4.551-11.446-9.066-16.557    c-5.538-6.269-14.022-9.123-20.212-14.584c-5.922-5.224-14.116-10.246-21.847-12.041c-8.5-1.975-17.409-3.082-25.758-5.632    c-5.687-1.736-8.134-5.219-11.437-9.826c-2.098-2.926-4.02-6.11-5.014-9.597c-1.826-6.402-1.681-13.803-2.419-20.4    c-0.6-5.363-2.267-9.856-4.056-14.911c-2.148-6.067-2.895-12.426-4.385-18.659c-1.504-6.29-1.975-12.556-2.563-18.985    c-0.579-6.341-1.562-12.585-1.554-18.964c0.009-6.701-0.494-14.052,1.278-20.535c1.735-6.349,5.45-11.512,10.178-16.014    c0.46-0.438-0.014-1.246-0.621-1.066c-4.758,1.408-8.038,4.667-10.274,8.733c1.061-4.296,3.108-8.347,5.939-11.866    c0.889-1.105-0.659-2.693-1.579-1.579c-5.431,6.577-11.249,15.814-8.02,24.647c-0.495,2.894-0.729,5.766-0.803,8.37    c-0.415,14.515-1.068,29.597,1.319,44.023c1.189,7.185,2.327,14.774,4.379,21.764c0.922,3.142,2.358,6.151,3.19,9.313    c0.409,1.553,0.651,3.151,0.824,4.762c-3.77,0.099-7.426,1.408-11.144,1.897c-0.536,0.071-1.071,0.124-1.606,0.174    c-0.183-0.022-0.376-0.028-0.584-0.009c-8.426,0.777-17.222,0.893-24.123-4.618c-2.862-2.286-6.601-3.791-9.332-6.258    c-0.982-0.888-2.028-1.708-3.222-2.369c-0.553-0.436-1.104-0.875-1.645-1.34c-5.288-4.558-10.41-9.703-14.5-15.378    c-0.751-1.043-2.5-0.048-1.745,1.02c3.448,4.88,6.926,9.492,10.751,13.646c-5.242-0.733-11.039-0.499-16-0.844    c-4.278-0.297-8.448-0.687-12.601-1.785c-1.844-0.488-3.82-0.865-5.66-1.524c6.006-2.802,12.173-6.621,14.208-12.303    c1.984-5.542-0.52-11.014-1.526-16.591c-0.729-4.037-2.339-7.626-1.268-11.756c0.826-3.185,2.271-5.795,4.042-8.516    c0.918-1.41,1.83-3.077,2.642-4.877c2.076-2.304,3.761-4.962,4.866-7.857c1.043-2.735,1.874-5.831,1.546-8.787    c-0.279-2.518-1.645-4.368-2.225-6.771c-0.152-0.63-1.125-0.49-1.123,0.152c0.016,3.454,0.086,6.522-0.504,9.66    c-0.349-2.373-1.248-4.577-2.956-6.384c-1.028-1.088-2.542,0.291-1.963,1.514c5.302,11.201-6.165,21.505-9.121,31.528    c-1.525,5.174-0.083,10.033,0.529,15.28c0.306,2.625,1.36,5.201,1.6,7.799c0.468,5.088-2.47,6.487-5.913,9.128    c-3.673,2.817-7.649,4.997-11.799,7.056c-4.95,2.457-8.72,5.942-13.307,8.979c-10.162,6.729-21.07,18.206-16.7,31.451    c0.93,2.82,4.633,8.008-0.392,9.624c-5.306,1.706-7.148-6.627-6.575-9.775c0.621-3.406,2.581-6.636,3.7-9.905    c0.083-0.242-0.17-0.443-0.392-0.393c-3.78,0.864-6.203,6.5-6.985,10.373c-0.216,0.082-0.423,0.211-0.608,0.407    c-2.981,3.155-4.716,4.988-4.545,9.329c0.088,2.251,1.081,3.989-2.542,4.928c-0.997,0.259-3.578-0.179-4.415-0.877    c-2.071-1.726-0.847-6.046-0.978-8.495c-0.37-6.948,5.863-6.429,10.118-10.056c2.67-2.277,5.781-6.562,5.305-10.216    c-0.061-0.468-0.788-0.858-1.04-0.282c-2.219,5.079-6.898,7.587-11.754,9.324c-2.864,1.024-5.343,2.589-6.94,5.302    c-1.698,2.884-1.038,5.589-1.436,8.806c-0.038,0.31-0.072,0.615-0.103,0.918c-0.242,0.035-0.492,0.076-0.763,0.119    c-1.508,0.241-2.871,0.17-4.323-0.374c-0.473-0.177-0.871-0.408-1.236-0.662c-0.438-2.672-1.381-5.146,0.033-7.705    c1.359-2.459,3.983-2.757,6.055-4.295c1.447-1.074,2.485-2.515,3.701-3.823c2.202-2.368,4.626-3.93,7.403-5.558    c2.372-1.39,7.542-3.987,10.534-7.25c2.065-1.091,3.831-2.427,5.601-4.678c3.295-4.193,5.044-8.526,10.108-11.092    c4.124-2.089,8.402-2.815,11.434-6.614c3.133-3.925,5.27-9.121,7.226-13.722c1.679-3.948,3.825-7.717,4.542-11.962    c0.87-5.154-0.499-7.423-2.873-11.835c-2.475-4.602-5.991-8.334-8.025-13.224c-2.379-5.715-2.4-10.282-2.53-16.299    c-0.02-0.916-1.432-1.172-1.645-0.223c-1.737,7.743-1.352,13.995,1.865,21.455c1.776,4.119,4.58,7.592,6.086,11.834    c2.282,6.427,0.138,9.542-2.263,15.286c-1.624,3.883-3.246,8.049-5.444,11.715c-1.285-0.905-2.731-1.639-4.023-2.531    c-1.471-1.015-2.224-2.57-3.292-3.98c-1.251-1.65-2.406-4.08-4.066-5.606c-1.538-2.128-3.125-4.215-4.777-6.17    c-3.935-4.657-9.179-8.005-13.023-12.749c-1.519-1.874-2.504-3.779-3.184-5.731c-1.041-6.154-2.175-12.245-2.503-18.545    c-0.342-6.559-1.637-13.738-0.971-20.256c0.079-0.771-1.05-0.823-1.279-0.173c-1.756,4.97-1.489,11.2-1.115,16.927    c-1.435-2.546-2.972-5.052-4.005-7.926c-2.23-6.203-1.645-12.946-3.691-19.22c-1.827-5.601-4.553-10.799-6.373-16.429    c-1.289-3.988-2.192-7.954-2.833-11.988c-0.101-5.543-1.358-11.187-1.181-16.689c0.177-5.481,2.788-11.029,4.029-16.324    c1.381-5.887,2.999-11.77,5.716-17.199c3.479-6.952,8.589-11.15,7.892-19.487c-0.848-10.14,2.726-17.541,7.097-26.399    c3.903-7.911,6.292-16.647,8.505-25.157c0.315-1.211-1.517-1.713-1.872-0.516c-2.937,9.91-6.358,19.543-11.583,28.495    c-3.831,6.564-7.021,13.576-7.184,21.331c-0.103,4.916-0.252,7.794-3.072,12.12c-2.026,3.11-3.939,5.986-5.349,9.433    c-1.558,3.809-2.923,7.748-3.913,11.766c-0.067-0.53-0.131-1.064-0.186-1.606c-0.509-5.033,1.622-9.239,2.592-14.044    c1.69-8.366,0.501-16.816,2.379-25.204c0.333-1.485,0.604-2.976,0.854-4.47c1.335-4.56,2.287-9.263,3.962-13.725    c2.776-7.392,6.474-14.114,10.208-21.043c0.179-0.332-0.308-0.617-0.505-0.295c-3.958,6.465-8,12.769-11.229,19.643    c-0.22,0.469-0.415,0.939-0.62,1.41c0.247-1.991,0.516-3.981,0.846-5.968c1.363-8.205,6.845-13.697,9.592-21.207    c2.499-6.83,3.841-14.062,6.106-20.983c1.483-4.534,4.434-7.734,6.885-11.735c1.78-2.906,3.359-5.834,5.381-8.591    c2.203-3.002,5.162-6.44,8.5-8.39c3.267-1.907,7.042-4.319,10.697-5.432c4.643-1.413,9.024,0.625,13.246,2.285    c6.541,2.572,13.64,5.006,20.704,5.437c8.517,0.519,16.999-1.433,25.43,0.294c4.484,0.918,8.981,2.363,12.796,4.942    c2.549,1.723,7.69,5.424,9.452,8.835c-0.477,1.935-1.325,2.616-2.546,2.038c-0.647-0.222-1.312-0.367-1.995-0.436    c-0.598-0.112-1.211-0.228-1.818-0.284c-3.394-0.311-6.922,0.314-10.266,0.881c-2.633,0.446-5.031,1.556-7.632,1.963    c-2.872,0.45-6.092-0.334-9.112-0.198c-5.273,0.237-9.84,1.888-14.889,3.153c-7.144,1.791-14.166,1.117-21.257,2.327    c-0.956,0.163-1.445,1.5-0.924,2.272c0.908,1.349,1.793,1.297,3.324,1.38c4.652,0.252,9.178,0.546,13.713,1.86    c4.972,1.44,7.936,5.345,12.382,7.649c3.239,1.679,6.435,1.513,9.975,1.947c3.88,0.476,6.872,1.092,10.166,2.95    c3.179,1.793,7.348,2.314,10.916,2.857c1.485,0.226,4.078-0.214,5.278,0.323c1.701-0.512,2.191,0.218,1.472,2.189    c-0.726,0.604-1.507,1.117-2.344,1.538c-2.123,1.181-4.643,2.012-7.158,2.642c-2.015,0.21-3.984,0.281-5.939,0.209    c-0.171-0.059-0.357-0.099-0.569-0.099c-0.142,0-0.274,0.016-0.397,0.043c-3.124-0.195-6.22-0.762-9.409-1.785    c-4.864-1.56-9.018-2.249-14.128-2.398c-5.456-0.16-11.149,2.421-16.417,1.634c-2.619-0.391-4.722-1.364-6.948-2.03    c-1.463-0.834-2.879-1.76-4.357-2.561c-2.187-1.185-4.284-2.143-5.779-4.221c-1.247-1.734-1.88-3.813-2.959-5.647    c-0.398-0.676-1.685-0.646-1.822,0.238c-0.811,5.213,0.85,9.463,5.09,12.617c-6.4,2.349-11.105,8.024-14.675,13.782    c-3.118,5.029-7.128,11.521-9.214,17.966c-0.447,0.867-0.852,1.771-1.168,2.755c-1.698,5.285-1.97,9.934-2.038,15.442    c-0.156,12.505,3.324,23.309,5.543,35.453c1.029,5.631,0.422,11.473,1.668,17.056c0.641,2.875,1.962,5.506,2.855,8.299    c0.859,2.688,1.242,5.513,2.35,8.122c3.187,7.507,9.893,15.348,16.932,19.552c6.661,3.978,13.862,7.182,21.799,6.143    c15.988-2.092,30.183-7.815,44.219-15.592c4.416-2.446,7.509-3.738,12.615-4.367c4.419-0.544,8.96-0.733,13.407-0.456    c9.468,0.592,20.874,2.054,28.689,7.924c6.119,4.595,12.963,7.943,20.429,9.835c8.647,2.191,17.789,1.396,26.315,4.331    c8.805,3.031,17.909,4.558,26.874,7.075c3.059,0.858,6.205,1.546,9.35,2.124c4.137,1.198,8.275,2.346,12.47,2.903    c9.005,1.195,18.417-1.48,27.328,0.024c4.027,0.68,7.784,2.412,11.641,3.679c4.055,1.332,8.261,2.002,12.437,2.838    c7.947,1.59,15.625,2.875,23.122,5.96c8.091,3.33,14.618,7.892,21.459,13.314c6.037,4.786,13.8,11.421,16.084,18.974    c1.003,3.317,1.603,6.579,3.004,9.783c1.931,4.413,4.642,8.399,5.798,13.122C484.88,294.683,485.771,305.465,483.2,314.243z" data-original="#000000" class="active-path" data-old_color="#000000" fill="#944A8E"/>
	</g>
</g><g>
	<g>
		<path d="M318.003,258.53c-1.235,23.493-16.719,40.962-32.106,56.968c-0.966,1.005,0.274,2.719,1.514,1.963    c19.197-11.702,32.486-36.601,32.426-58.931C319.834,257.343,318.064,257.357,318.003,258.53z" data-original="#000000" class="active-path" data-old_color="#000000" fill="#944A8E"/>
	</g>
</g><g>
	<g>
		<path d="M303.542,309.322c-3.385,3.386-6.842,6.701-10.482,9.814c-4.027,3.444-8.573,6.131-12.766,9.356    c-0.86,0.662-0.144,2.021,0.872,1.492c9.44-4.917,16.193-11.979,22.883-20.154C304.336,309.479,303.875,308.989,303.542,309.322z" data-original="#000000" class="active-path" data-old_color="#000000" fill="#944A8E"/>
	</g>
</g><g>
	<g>
		<path d="M220.581,288.645c-14.902-3.222-26.788-9.667-36.245-21.822c-0.395-0.508-1.271,0.162-0.897,0.693    c4.778,6.782,8.208,12.535,15.33,17.236c6.349,4.19,13.777,7.062,21.462,6.478C221.623,291.125,222.123,288.979,220.581,288.645z" data-original="#000000" class="active-path" data-old_color="#000000" fill="#944A8E"/>
	</g>
</g><g>
	<g>
		<path d="M239.166,286.549c-5.786-1.406-11.805-1.52-17.6-2.917c-5.5-1.327-9.598-4.139-14.126-7.332    c-0.806-0.568-1.837,0.748-1.063,1.378c4.142,3.373,7.51,6.818,12.623,8.762c6.429,2.444,13.007,2.604,19.759,3.111    C240.485,289.682,240.826,286.953,239.166,286.549z" data-original="#000000" class="active-path" data-old_color="#000000" fill="#944A8E"/>
	</g>
</g><g>
	<g>
		<path d="M231.412,278.167c-5.491-0.996-10.793-2.909-15.917-5.086c-1.272-0.541-2.414,1.268-1.114,1.905    c5.353,2.625,10.727,5.034,16.816,4.773C232.063,279.722,232.355,278.338,231.412,278.167z" data-original="#000000" class="active-path" data-old_color="#000000" fill="#944A8E"/>
	</g>
</g><g>
	<g>
		<path d="M118.336,272.72c-4.772-11.123-7.951-22.066-8.38-34.23c-0.041-1.142-1.803-1.15-1.781,0    c0.225,11.933,1.041,25.271,8.256,35.344C117.27,275.005,118.893,274.018,118.336,272.72z" data-original="#000000" class="active-path" data-old_color="#000000" fill="#944A8E"/>
	</g>
</g><g>
	<g>
		<path d="M129.588,273.908c-3.291-4.997-6.628-9.783-8.694-15.459c-1.946-5.344-3.168-10.923-4.26-16.492    c-0.293-1.496-2.563-0.859-2.282,0.629c2.345,12.415,4.794,23.128,13.67,32.53C128.789,275.928,130.217,274.864,129.588,273.908z" data-original="#000000" class="active-path" data-old_color="#000000" fill="#944A8E"/>
	</g>
</g><g>
	<g>
		<path d="M221.889,314.731c-4.786-2.517-9.79-4.505-14.367-7.424c-5.147-3.283-9.681-7.584-13.695-12.163    c-0.542-0.618-1.364,0.266-0.884,0.883c7.278,9.36,16.171,17.945,28.147,20.599C222.19,316.87,222.976,315.302,221.889,314.731z" data-original="#000000" class="active-path" data-old_color="#000000" fill="#944A8E"/>
	</g>
</g><g>
	<g>
		<path d="M229.6,306.622c-8.833-2.241-16.778-5.726-24.481-10.567c-0.848-0.533-1.591,0.779-0.778,1.332    c7.769,5.283,15.283,9.82,24.673,11.363C230.384,308.975,231.005,306.978,229.6,306.622z" data-original="#000000" class="active-path" data-old_color="#000000" fill="#944A8E"/>
	</g>
</g><g>
	<g>
		<path d="M437.915,263.1c-8.438-4.516-17.23-6.489-26.647-7.732c-9.457-1.248-18.585-2.155-27.929,0.4    c-1.133,0.31-0.651,1.966,0.48,1.743c17.396-3.427,36.82,2.167,53.113,7.921C438.297,265.915,439.182,263.778,437.915,263.1z" data-original="#000000" class="active-path" data-old_color="#000000" fill="#944A8E"/>
	</g>
</g><g>
	<g>
		<path d="M460.454,283.746c-7.794-8.228-20.09-12.856-30.289-17.299c-1.042-0.455-1.973,1.039-0.913,1.561    c10.165,5.007,20.466,10.518,29.454,17.487C459.93,286.444,461.582,284.937,460.454,283.746z" data-original="#000000" class="active-path" data-old_color="#000000" fill="#944A8E"/>
	</g>
</g><g>
	<g>
		<path d="M389.299,275.488c-14.792,3.773-29.336,8.391-44.473,10.735c-0.761,0.118-0.59,1.455,0.184,1.357    c15.608-1.959,30.125-4.125,44.946-9.708C391.421,277.32,390.87,275.087,389.299,275.488z" data-original="#000000" class="active-path" data-old_color="#000000" fill="#944A8E"/>
	</g>
</g><g>
	<g>
		<path d="M240.432,220.45c-2.443,6.352-4.966,12.966-3.429,19.828c0.223,0.997,1.765,0.98,2,0c0.736-3.077,0.779-6.095,1.106-9.228    c0.362-3.473,1.244-6.74,2.271-10.063C242.772,219.723,240.89,219.26,240.432,220.45z" data-original="#000000" class="active-path" data-old_color="#000000" fill="#944A8E"/>
	</g>
</g><g>
	<g>
		<path d="M472.058,287.959c-2.498-3.75-5.39-7.479-8.699-10.551c-3.035-2.818-6.759-4.809-10.136-7.169    c-0.819-0.572-1.878,0.774-1.08,1.399c3.172,2.481,6.631,4.639,9.491,7.494c3.182,3.177,5.578,6.99,9.046,9.89    C471.391,289.617,472.651,288.848,472.058,287.959z" data-original="#000000" class="active-path" data-old_color="#000000" fill="#944A8E"/>
	</g>
</g><g>
	<g>
		<path d="M346.955,392.329c-0.552-0.573-1.375,0.275-0.865,0.865c3.605,4.164,7.405,7.708,11.596,11.267    c5.496,4.668,8.263,9.78,8.861,17.037c0.16,1.952,2.939,1.982,3.057,0C370.52,406.089,356.062,401.783,346.955,392.329z" data-original="#000000" class="active-path" data-old_color="#000000" fill="#944A8E"/>
	</g>
</g><g>
	<g>
		<path d="M368.548,428.683c0.058-1.104-1.604-1.075-1.701,0c-0.796,8.827-1.494,17.379,1.036,25.974    c0.309,1.047,1.95,0.871,1.933-0.261C369.683,445.76,368.088,437.409,368.548,428.683z" data-original="#000000" class="active-path" data-old_color="#000000" fill="#944A8E"/>
	</g>
</g></g> </svg>
